  0
SECTION
  2
HEADER
  9
$ACADVER
  1
AC1009
  0
ENDSEC
  0
SECTION
  2
TABLES
  0
TABLE
  2
LAYER
 70
     2
  0
LAYER
  2
WALLS
 70
     0
 62
     7
  6
CONTINUOUS
  0
LAYER
  2
FURNITURE
 70
     0
 62
     3
  6
CONTINUOUS
  0
ENDTAB
  0
ENDSEC
  0
SECTION
  2
BLOCKS
  0
BLOCK
  8
0
  2
CHAIR
 70
     0
 10
0.0
 20
0.0
 30
0.0
  3
CHAIR
  1

  0
LINE
  8
FURNITURE
 10
-0.5
 20
-0.5
 30
0.0
 11
0.5
 21
-0.5
 31
0.0
  0
ENDBLK
  8
0
  0
ENDSEC
  0
SECTION
  2
ENTITIES
  0
LINE
  8
WALLS
 10
0.0
 20
0.0
 30
0.0
 11
100.0
 21
0.0
 31
0.0
  0
LINE
  8
WALLS
 10
100.0
 20
0.0
 30
0.0
 11
100.0
 21
50.0
 31
0.0
  0
POLYLINE
  8
WALLS
 66
     1
 10
0.0
 20
0.0
 30
0.0
  0
VERTEX
  8
WALLS
 10
0.0
 20
50.0
 30
0.0
  0
VERTEX
  8
WALLS
 10
50.0
 20
50.0
 30
0.0
  0
VERTEX
  8
WALLS
 10
50.0
 20
0.0
 30
0.0
  0
SEQEND
  8
WALLS
  0
INSERT
  8
FURNITURE
  2
CHAIR
 10
25.0
 20
25.0
 30
0.0
 41
1.0
 42
1.0
 43
1.0
 50
45.0
  0
ENDSEC
  0
EOF
